<?xml version="1.0"?>
<svg width="65" height="75" xmlns="http://www.w3.org/2000/svg" xmlns:svg="http://www.w3.org/2000/svg" enable-background="new 0 0 64.6 82.9" version="1.1" xml:space="preserve">
 <style type="text/css">.st0{fill:#4A1763;}
	.st1{fill:#FFFFFF;enable-background:new    ;}
	.st2{font-family:&#x27;SofiaPro-Light&#x27;;}
	.st3{font-size:3.5384px;}
	.st4{fill:none;stroke:#4A1763;stroke-width:0.2;stroke-miterlimit:10;}
	.st5{font-family:&#x27;SofiaPro-Medium&#x27;;}
	.st6{font-size:6.8212px;}
	.st7{fill:#AD821C;}</style>
 <g class="layer">
  <title>Layer 1</title>
  <circle class="st0" cx="32.2" cy="30.9" id="svg_1" r="23.7"/>
  <polygon class="st1" id="svg_2" points="19.9,15.4 19.9,25.1 21.7,25.1 21.7,21.2 25.2,21.2 25.2,19.5 21.7,19.5 21.7,17 25.8,17 25.8,15.4 "/>
  <path class="st1" d="m28,24.7c0,0 0,0.1 0,0c-0.1,0 -0.1,0 0,0c-0.6,-0.4 -1.1,-1 -1.3,-1.6c-0.1,-0.3 -0.1,-0.6 -0.1,-0.9l0,-4.1c0,-0.2 0,-0.4 0,-0.5c0,-0.2 0.1,-0.4 0.2,-0.5c0.5,-1 1.5,-1.7 2.6,-1.7s2.2,0.6 2.7,1.6c0.1,0.2 0.2,0.4 0.2,0.5c0,0.2 0,0.4 0,0.6l0,4.6c0,0.2 0,0.3 0,0.5c0,0.1 -0.1,0.3 -0.2,0.4c-0.1,0.3 -0.3,0.5 -0.5,0.7c-0.2,0.2 -0.4,0.4 -0.6,0.5c0,-0.6 -0.1,-1.1 -0.1,-1.7l0.1,-1.9l-0.1,-3.9c0,-0.1 -0.1,-0.3 -0.2,-0.3c-0.1,0 -0.1,0.1 -0.1,0.2c0,1.8 0,3.6 0,5.4c0,0.2 0,0.5 0,0.7c0,0 0,0 0,0.1c0,0 0,0 -0.1,0c-0.1,0 -0.2,0 -0.2,0c0,0 0,0 0,0c0,0 0,0 0,0c0,-0.1 0,-0.2 0,-0.3c0,-0.3 0,-0.7 0,-1c0,-0.9 0,-1.9 -0.1,-2.8c0,-0.6 0,-1.2 0,-1.9l0,0c0,-0.1 0,-0.3 -0.1,-0.3c-0.1,0 -0.1,0.2 -0.1,0.3c0,1.8 -0.1,3.6 -0.1,5.4c0,0.2 0,0.4 0,0.7c0,0 0,0 0,0c0,0 0,0 0,0l-0.2,0c0,0 -0.1,-4.8 -0.1,-5.3l0,-0.2c0,-0.2 0,-0.5 0,-0.7c0,-0.1 0,-0.1 -0.1,-0.2c-0.1,0 -0.1,0 -0.2,0.1s0,0.1 0,0.2c0,1.8 -0.1,3.6 -0.1,5.4c0,0.2 0,0.4 0,0.7c0,0 0,0 0,0c0,0 0,0 0,0l-0.2,0c0,0 0,0 0,0c0,0 0,0 0,0c0,-1.8 -0.1,-3.5 -0.1,-5.3l0,-0.1l0,-0.1c0,-0.2 0,-0.5 0,-0.7c0,0 0,-0.1 0,-0.1s-0.6,-0.2 -0.6,-0.2c-0.1,0 -0.1,0.1 -0.1,0.2c-0.1,1.5 -0.1,3 -0.1,4.5l-0.1,1.9c0,0.4 0,0.7 0,1.1c0,0 0,0 0,0c0,0 0,0 0,0l0,0z" id="svg_3"/>
  <path class="st1" d="m36.9,25c0.1,0 0.1,-2.9 0.1,-3.2l0.1,-3.7c0,-0.4 0,-0.8 -0.2,-1.1c-0.3,-0.1 -0.6,0.1 -0.8,0.2s-0.4,0.5 -0.5,0.7c-0.5,1.1 -0.7,2.3 -0.8,3.5c-0.1,0.6 -0.1,1.2 -0.1,1.8c0,0.1 -0.1,1.5 0,1.5c-0.8,-0.2 -1.5,-1.1 -1.6,-1.9c0,-0.2 0,-0.4 0,-0.6l0,-3.4c0,-0.4 0,-0.8 0.1,-1.2c0.2,-1.1 1.2,-2.1 2.3,-2.3s2.3,0.3 3,1.2c0.2,0.2 0.3,0.5 0.4,0.8c0.1,0.3 0.1,0.6 0.1,0.8l0,3.5c0,0.7 0,1.4 -0.3,2.1c-0.5,0.7 -1.1,1.2 -1.8,1.3l0,0z" id="svg_4"/>
  <path class="st1" d="m39.9,25l0,-9.6c1.9,0 4.8,-0.5 5.4,1.9c0.1,0.5 0.1,0.9 0.1,1.4l0,3.2c0,0.3 0,0.6 -0.1,0.9c-0.1,0.3 -0.2,0.6 -0.3,0.8c-0.5,0.9 -1.6,1.3 -2.6,1.3c-0.7,0.1 -1.6,0.1 -2.5,0.1z" id="svg_5"/>
  <path class="st0" d="m41.6,17.1l0,6.4c0.7,0 1.8,0.2 2.1,-0.7c0.1,-0.2 0.1,-0.4 0.1,-0.6l0,-3.6c0,-0.3 0,-0.6 -0.1,-0.9c-0.4,-0.8 -1.3,-0.6 -2.1,-0.6z" id="svg_6"/>
  <polygon class="st1" id="svg_7" points="19.9,36 19.9,26.3 21.1,26.3 23,30.7 24.9,26.3 26.1,26.3 26.1,36 24.9,36 24.9,29.8 23.4,33.8   22.6,33.8 21.3,29.8 21.2,36 "/>
  <path class="st1" d="m26.5,36l2.2,-9.1c0.2,0.7 0.4,1.4 0.4,2.2l0,2.1c0,0.9 0,1.9 -0.3,2.8c-0.2,0.7 -0.4,1.4 -0.5,2l-1.8,0z" id="svg_8"/>
  <path class="st1" d="m32.5,36l-2.2,-9.1c-0.1,0.6 -0.3,1.1 -0.4,1.7c-0.1,0.6 0,1.2 0,1.8l0,1.8c0,1.3 0.5,2.6 0.8,3.9l1.8,0l0,-0.1z" id="svg_9"/>
  <path class="st1" d="m33.5,26.3l1.1,0c0,0 0,2 0,2.1c0,0.1 0,0.2 0,0.2c0,0.1 0.1,0.1 0.1,0.1l0.5,0.6c0.1,0.1 0.2,0.3 0.2,0.5l-0.2,0c-0.1,0 0.2,0.7 0.2,0.7l0,5.5l-1.9,0c0,0 0,-9.7 0,-9.7z" id="svg_10"/>
  <path class="st1" d="m36.9,26.3c0.1,0.4 0,0.9 0,1.3c0,0.7 0,1.4 0,2.2c0,0 0,0 0,0c0,0 0,0 0.1,0c0.1,0 0.1,0 0.2,0c0.1,0 0,0.4 0,0.5c0,0.2 -0.3,0.1 -0.3,0.1c0,1.8 0,3.6 0,5.5c0.5,-0.2 1,-0.5 1.5,-0.8c0.3,-0.3 0.6,-0.7 0.7,-1.1c0.1,-0.3 0.1,-0.5 0.1,-0.8l0,-3.7c0,-0.4 0,-0.8 -0.1,-1.2c-0.2,-0.7 -0.7,-1.3 -1.4,-1.7c-0.3,-0.1 -0.6,-0.2 -0.8,-0.3l0,0z" id="svg_11"/>
  <polygon class="st1" id="svg_12" points="39.9,26.3 39.9,36 45,36 45,34.3 41.6,34.3 41.6,31.9 44.6,31.9 44.7,30.3 41.6,30.3 41.6,27.9   45,27.9 45,26.3 "/>
  <path class="st1" d="m25.8,40.6l-1.7,0c0,-0.7 -0.1,-1.6 -0.9,-1.8c-0.5,-0.1 -1,0.1 -1.3,0.5c-0.3,0.4 -0.3,0.9 -0.3,1.4l0,3.3c0,0.2 0,0.3 0.1,0.5c0,0.1 0.1,0.3 0.2,0.4c0.3,0.3 0.8,0.5 1.2,0.4s0.8,-0.4 1,-0.8c0,-0.1 0.1,-1.6 0.1,-1.6l-1.4,0l0,-1.4l3.1,0l0,1.2c0,0.6 0.1,1.4 0,2c-0.5,1.3 -1.8,2.3 -3,2.3c-0.7,0 -1.3,-0.3 -1.8,-0.7c-0.3,-0.3 -0.7,-0.7 -0.9,-1.1c-0.2,-0.4 -0.2,-0.9 -0.2,-1.4l0,-2.9c0,-0.4 0,-0.9 0.1,-1.3c0.1,-0.8 0.6,-1.5 1.3,-2c0.3,-0.2 0.5,-0.3 0.8,-0.4c0.2,0 0.4,0 0.6,-0.1c0.3,0 0.6,0 0.9,0.1c0.7,0.1 1.3,0.6 1.7,1.2c0.2,0.4 0.4,0.8 0.4,1.2c-0.1,0 0,1 0,1z" id="svg_13"/>
  <path class="st1" d="m28.7,37.2c-0.2,0.1 -0.4,0.1 -0.5,0.2c-0.2,0.1 -0.3,0.2 -0.5,0.3c-0.3,0.3 -0.5,0.6 -0.7,0.9c-0.1,0.2 -0.2,0.4 -0.3,0.7c0,0.2 0,0.4 0,0.5l0,4.2c0,0.3 0,0.6 0.1,0.9c0.1,0.3 0.2,0.6 0.4,0.9c0.6,0.8 1.6,1.2 2.5,1.2s1.9,-0.6 2.4,-1.4c0.1,-0.2 0.2,-0.5 0.3,-0.7c0,-0.2 0,-0.4 0,-0.6l0,-4.1c0,-0.3 0,-0.6 -0.1,-0.9c-0.1,-0.5 -0.4,-0.9 -0.8,-1.3c-0.2,-0.2 -0.4,-0.3 -0.6,-0.5c-0.2,-0.1 -0.4,-0.2 -0.6,-0.3c0.1,1.1 0.2,2.2 0.3,3.4c0.1,1 0.2,2 0.2,3.1c0,0.5 0.1,1 -0.3,1.3c-0.2,0.2 -0.6,0.3 -0.9,0.3c-0.3,0 -0.6,0 -0.8,-0.1s-0.5,-0.3 -0.6,-0.6c-0.1,-0.3 -0.1,-0.6 -0.1,-0.9c0.1,-1.3 0.2,-2.6 0.3,-3.9c0.1,-0.6 0.1,-1.2 0.1,-1.7c0.2,-0.4 0.1,-0.7 0.2,-0.9z" id="svg_14"/>
  <path class="st1" d="m35.4,37.2c-0.2,0.1 -0.4,0.1 -0.5,0.2c-0.2,0.1 -0.3,0.2 -0.5,0.3c-0.3,0.3 -0.5,0.6 -0.7,0.9c-0.1,0.2 -0.2,0.4 -0.3,0.7c0,0.2 0,0.4 0,0.5l0,4.2c0,0.3 0,0.6 0.1,0.9c0.1,0.3 0.2,0.6 0.4,0.9c0.6,0.8 1.6,1.2 2.5,1.2s1.9,-0.6 2.4,-1.4c0.1,-0.2 0.2,-0.5 0.3,-0.7c0,-0.2 0,-0.4 0,-0.6l0,-4.1c0,-0.3 0,-0.6 -0.1,-0.9c-0.1,-0.5 -0.4,-0.9 -0.8,-1.3c-0.2,-0.2 -0.4,-0.3 -0.6,-0.5c-0.2,-0.1 -0.4,-0.2 -0.6,-0.3c0.1,1.1 0.2,2.2 0.3,3.4c0.1,1 0.2,2 0.2,3.1c0,0.5 0.1,1 -0.3,1.3c-0.2,0.2 -0.6,0.3 -0.9,0.3c-0.3,0 -0.6,0 -0.8,-0.1s-0.5,-0.3 -0.6,-0.6c-0.1,-0.3 -0.1,-0.6 -0.1,-0.9c0.1,-1.3 0.2,-2.6 0.3,-3.9c0.1,-0.6 0.1,-1.2 0.1,-1.7c0.2,-0.4 0.1,-0.7 0.2,-0.9z" id="svg_15"/>
  <path class="st1" d="m39.9,46.9l0,-9.6c1.9,0 4.8,-0.5 5.4,1.9c0.1,0.5 0.1,0.9 0.1,1.4l0,3.2c0,0.3 0,0.6 -0.1,0.9c-0.1,0.3 -0.2,0.6 -0.3,0.8c-0.5,0.9 -1.6,1.3 -2.6,1.3c-0.7,0.1 -1.6,0.1 -2.5,0.1z" id="svg_16"/>
  <path class="st0" d="m41.7,39l0,6.4c0.7,0 1.8,0.2 2.1,-0.7c0.1,-0.2 0.1,-0.4 0.1,-0.6l0,-3.6c0,-0.3 0,-0.6 -0.1,-0.9c-0.4,-0.8 -1.4,-0.6 -2.1,-0.6z" id="svg_17"/>
  <text class="st0 st2 st3" id="svg_18" transform="matrix(0.3338 -0.928 0.941 0.3384 7.9158 22.0872)">S</text>
  <text class="st0 st2 st3" id="svg_19" transform="matrix(0.4189 -0.8928 0.9053 0.4247 8.5586 20.2669)">U</text>
  <text class="st0 st2 st3" id="svg_20" transform="matrix(0.498 -0.8512 0.8631 0.505 9.5435 18.1826)">S</text>
  <text class="st0 st2 st3" id="svg_21" transform="matrix(0.5625 -0.8101 0.8214 0.5703 10.4842 16.57)">T</text>
  <text class="st0 st2 st3" id="svg_22" transform="matrix(0.621 -0.7662 0.7769 0.6296 11.4323 15.1831)">A</text>
  <text class="st0 st2 st3" id="svg_23" transform="matrix(0.6663 -0.7271 0.7372 0.6756 12.7555 13.5764)">I</text>
  <text class="st0 st2 st3" id="svg_24" transform="matrix(0.7125 -0.6819 0.6914 0.7225 13.3396 12.9016)">N</text>
  <text class="st0 st2 st3" id="svg_25" transform="matrix(0.77 -0.6162 0.6248 0.7808 15.0558 11.2658)">A</text>
  <text class="st0 st2 st3" id="svg_26" transform="matrix(0.8182 -0.5506 0.5583 0.8296 16.6724 9.9677)">B</text>
  <text class="st0 st2 st3" id="svg_27" transform="matrix(0.8564 -0.4891 0.4959 0.8684 18.4546 8.7781)">L</text>
  <text class="st0 st2 st3" id="svg_28" transform="matrix(0.888 -0.429 0.435 0.9004 19.8883 7.9526)">E</text>
  <text class="st0 st2 st3" id="svg_29" transform="matrix(0.93 -0.3282 0.3327 0.943 22.4129 6.7777)">R</text>
  <text class="st0 st2 st3" id="svg_30" transform="matrix(0.9525 -0.2555 0.2591 0.9659 24.4044 6.0783)">E</text>
  <text class="st0 st2 st3" id="svg_31" transform="matrix(0.9688 -0.1847 0.1873 0.9823 26.2531 5.5805)">S</text>
  <text class="st0 st2 st3" id="svg_32" transform="matrix(0.9793 -0.1165 0.1181 0.993 28.0884 5.2283)">T</text>
  <text class="st0 st2 st3" id="svg_33" transform="matrix(0.9849 -5.043435e-02 5.113957e-02 0.9987 29.7378 5.0199)">A</text>
  <text class="st0 st2 st3" id="svg_34" transform="matrix(0.9857 3.103146e-02 -3.146536e-02 0.9995 31.7955 4.907)">U</text>
  <text class="st0 st2 st3" id="svg_35" transform="matrix(0.9797 0.1127 -0.1143 0.9934 34.096 4.9816)">R</text>
  <text class="st0 st2 st3" id="svg_36" transform="matrix(0.9677 0.19 -0.1926 0.9813 36.186 5.2205)">A</text>
  <text class="st0 st2 st3" id="svg_37" transform="matrix(0.9484 0.2705 -0.2743 0.9617 38.2306 5.6147)">N</text>
  <text class="st0 st2 st3" id="svg_38" transform="matrix(0.924 0.3446 -0.3494 0.937 40.4832 6.265)">T</text>
  <text class="st0 st2 st3" id="svg_39" transform="matrix(0.8847 0.4359 -0.4419 0.897 42.8692 7.1833)">A</text>
  <text class="st0 st2 st3" id="svg_40" transform="matrix(0.8491 0.5017 -0.5087 0.861 44.7312 8.1013)">S</text>
  <text class="st0 st2 st3" id="svg_41" transform="matrix(0.81 0.5625 -0.5704 0.8214 46.3782 9.0732)">S</text>
  <text class="st0 st2 st3" id="svg_42" transform="matrix(0.7556 0.6338 -0.6426 0.7662 47.971 10.1539)">O</text>
  <text class="st0 st2 st3" id="svg_43" transform="matrix(0.6889 0.7057 -0.7156 0.6985 50.0544 11.9069)">C</text>
  <text class="st0 st2 st3" id="svg_44" transform="matrix(0.6416 0.749 -0.7594 0.6506 51.6584 13.5815)">I</text>
  <text class="st0 st2 st3" id="svg_45" transform="matrix(0.5942 0.7871 -0.7981 0.6025 52.2599 14.2551)">A</text>
  <text class="st0 st2 st3" id="svg_46" transform="matrix(0.5337 0.8293 -0.8409 0.5412 53.4025 15.7603)">T</text>
  <text class="st0 st2 st3" id="svg_47" transform="matrix(0.4836 0.8595 -0.8715 0.4904 54.4057 17.3445)">I</text>
  <text class="st0 st2 st3" id="svg_48" transform="matrix(0.4141 0.895 -0.9076 0.4199 54.8787 18.1067)">O</text>
  <text class="st0 st2 st3" id="svg_49" transform="matrix(0.3125 0.9354 -0.9485 0.3168 56.0129 20.5683)">N</text>
  <path class="st4" d="m6.1,25.1c-2.7,11.5 2.8,22 9.1,26.8" id="svg_50"/>
  <path class="st4" d="m58.5,25.1c2.7,11.5 -2.8,22 -9.1,26.8" id="svg_51"/>
  <text class="st0 st5 st6" id="svg_52" transform="matrix(1 0 0 1 25.0468 74.1576)" x="0.86" y="-2.24">2025</text>
  <polygon class="st7" id="svg_53" points="48.1,54.3 47.5,57.7 49.7,59.7 46.6,60.1 45.3,62.6 44,60 41.3,59.5 43.3,57.5 42.8,54.7 45.3,56 "/>
  <polygon class="st7" id="svg_54" points="37.6,59.9 34.9,62.5 35.6,65.9 32.5,64.1 29.7,65.5 30.3,62.3 28.1,60.1 31.3,59.7 32.7,56.8   34.1,59.6 "/>
  <polygon class="st7" id="svg_55" points="17.3,54.3 17.9,57.7 15.6,59.7 18.8,60.1 20.1,62.6 21.3,60 24.1,59.5 22,57.5 22.5,54.7 20,56 "/>
 </g>
</svg>